<?xml version="1.0" encoding="UTF-8" standalone="no"?>
<!-- Created with Inkscape (http://www.inkscape.org/) -->

<svg
   xmlns:dc="http://purl.org/dc/elements/1.1/"
   xmlns:cc="http://creativecommons.org/ns#"
   xmlns:rdf="http://www.w3.org/1999/02/22-rdf-syntax-ns#"
   xmlns:svg="http://www.w3.org/2000/svg"
   xmlns="http://www.w3.org/2000/svg"
   version="1.1"
   width="29.334589"
   height="18.277647"
   viewBox="500 4700 7792.0002 812.33987"
   id="svg2"
   xml:space="preserve"
   style="fill-rule:evenodd"><metadata
   id="metadata14"><rdf:RDF><cc:Work
       rdf:about=""><dc:format>image/svg+xml</dc:format><dc:type
         rdf:resource="http://purl.org/dc/dcmitype/StillImage" /><dc:title></dc:title></cc:Work></rdf:RDF></metadata>
 <defs
   id="defs4">
  <style
   type="text/css"
   id="style6" />
 </defs>
 <g
   transform="translate(-45,5.6699417)"
   id="Layer_x0020_1">
  <metadata
   id="CorelCorpID_0Corel-Layer" />
  <path
   d="m 1712,3902 6370,0 c 126,0 204,103 173,229 l -805,3322 -6828,0 805,-3322 c 30,-126 158,-229 284,-229 z m -861,-588 641,0 0,-392 c 0,-94 77,-171 171,-171 l 1605,0 c 94,0 171,77 171,171 l 0,392 3781,0 c 126,0 229,103 229,229 l 0,359 -5738,0 c -126,0 -254,103 -284,229 l -805,3322 0,-3910 c 0,-126 103,-229 229,-229 z"
   id="folder"
   style="fill:#d7cc75" />
  <path
   d="m 1712,3826 5662,0 0,-283 c 0,-42 -17,-80 -45,-108 -28,-28 -66,-45 -108,-45 l -3781,0 -76,0 0,-76 0,-392 c 0,-26 -11,-50 -28,-67 -17,-17 -41,-28 -67,-28 l -1605,0 c -26,0 -50,11 -67,28 -17,17 -28,41 -28,67 l 0,392 0,76 -76,0 -641,0 c -42,0 -80,17 -108,45 -28,28 -45,66 -45,108 l 0,3273 655,-2703 c 19,-80 69,-151 133,-203 64,-52 145,-84 225,-84 z m 5814,0 556,0 c 23,0 45,3 67,8 57,14 104,45 137,88 33,43 51,96 51,155 0,22 -3,46 -9,71 l -805,3322 -14,58 -60,0 -6828,0 -76,0 0,-84 0,-3902 c 0,-84 34,-160 90,-215 55,-55 131,-90 215,-90 l 565,0 0,-316 c 0,-68 28,-130 73,-175 45,-45 107,-73 175,-73 l 1605,0 c 68,0 130,28 175,73 45,45 73,107 73,175 l 0,316 3705,0 c 84,0 160,34 215,90 55,55 90,131 90,215 l 0,283 z m 556,152 -556,0 -76,0 -5738,0 c -45,0 -92,19 -130,50 -39,31 -69,74 -80,120 l -782,3228 6671,0 791,-3263 c 3,-12 4,-24 4,-36 0,-25 -7,-46 -19,-62 -12,-16 -30,-28 -53,-33 -9,-2 -20,-3 -32,-3 z"
   id="outline"
   style="fill:#373435;fill-rule:nonzero" />
 </g>
</svg>